<?xml version="1.0" standalone="no"?><!DOCTYPE svg PUBLIC "-//W3C//DTD SVG 1.1//EN" "http://www.w3.org/Graphics/SVG/1.1/DTD/svg11.dtd"><svg t="1565272221386" class="icon" viewBox="0 0 1024 1024" version="1.1" xmlns="http://www.w3.org/2000/svg" p-id="3287" xmlns:xlink="http://www.w3.org/1999/xlink" width="200" height="200"><defs><style type="text/css"></style></defs><path d="M452.37867761 297.98570846c97.13171891-8.93877322 175.50086435 66.31802708 182.64008258 153.84720248 8.03899573 97.79548921-65.41824957 175.50086435-153.61119529 182.86133933-98.01674597 8.26025248-175.27960757-65.19699279-183.08259606-153.38993851-3.79086586-43.32207418 11.82986159-96.67445495 41.53726961-126.60311974 7.37522543-7.59648218 12.50838232-13.39340939 21.65366186-20.76863482 25.0020142-20.09011407 56.4942268-32.81975317 90.87752776-35.94684874zM609.79548921 592.2719536c1.12103427-1.5635478 4.01212264-4.91190014 5.35441366-6.6967047 2.22731809-2.68458206 3.12709558-3.79086586 5.13315691-6.25419118 3.34835234-4.91190014 6.25419117-8.92402278 9.38128673-14.29318688 33.71953067-55.15193576 36.84662625-127.70940354 6.47544792-185.32466462-12.7296391-24.78075744-21.87491862-34.82581448-40.19497859-52.68861046-70.78741368-69.88763617-193.80617387-67.66031811-265.03610106 5.57567042-50.90380591 52.24609694-72.11495426 135.52714251-39.07394434 209.44165178 10.48757056 23.8957304 20.54737806 38.17416682 37.06788302 55.5944493 53.14587445 55.81570606 135.08462899 75.02079308 207.87810398 45.99190577a198.82132715 198.82132715 0 0 0 30.81369186-15.63547791c12.95089586-7.81773895 23.21720965-17.64153922 26.56556199-19.8688573 4.24812985 2.00606131 48.45523109 48.45523109 55.37319253 55.81570605 3.12709558 3.12709558 6.25419117 5.35441366 9.38128676 8.48150925l63.63344501 65.41824955c4.01212264 4.01212264 13.85067336 16.29924819 22.55343937 6.25419116 8.48150924-9.60254351-3.79086586-17.86279598-8.702766-22.99595288l-54.25215828-55.59444929c-3.34835234-3.56960912-6.6967047-5.81167764-9.82380026-9.16002999l-26.78681877-27.4653395c-11.82986159-12.28712557-23.67447364-24.78075744-35.72559199-36.62536949z" fill="#ffffff" p-id="3288"></path></svg>